<svg xmlns="http://www.w3.org/2000/svg" xmlns:xlink="http://www.w3.org/1999/xlink" width="500" zoomAndPan="magnify" viewBox="0 0 375 374.999991" height="500" preserveAspectRatio="xMidYMid meet" version="1.0"><defs><g/><clipPath id="2fc5284cda"><path d="M 56.800781 161 L 69.761719 161 L 69.761719 181.6875 L 56.800781 181.6875 Z M 56.800781 161 " clip-rule="nonzero"/></clipPath><clipPath id="98beafe5ac"><path d="M 60 140 L 318.199219 140 L 318.199219 183 L 60 183 Z M 60 140 " clip-rule="nonzero"/></clipPath><clipPath id="987eb5fe46"><path d="M 150 183.332031 L 229.601562 183.332031 L 229.601562 193.941406 L 150 193.941406 Z M 150 183.332031 " clip-rule="nonzero"/></clipPath><clipPath id="2c692f5c73"><path d="M 71.722656 227.734375 L 88.972656 227.734375 L 88.972656 229.160156 L 71.722656 229.160156 Z M 71.722656 227.734375 " clip-rule="nonzero"/></clipPath><clipPath id="c8230fcb45"><path d="M 286 227.734375 L 303.246094 227.734375 L 303.246094 229.160156 L 286 229.160156 Z M 286 227.734375 " clip-rule="nonzero"/></clipPath></defs><path fill="#e52024" d="M 293.660156 171.980469 L 298.9375 177.769531 C 299.5625 178.460938 300.417969 178.902344 301.339844 179.015625 L 308.785156 179.941406 C 308.957031 179.960938 309.082031 180.113281 309.074219 180.285156 C 309.0625 180.460938 308.917969 180.597656 308.742188 180.597656 L 299.003906 180.597656 C 298.894531 180.597656 298.792969 180.542969 298.730469 180.453125 L 293.148438 172.390625 C 293.050781 172.246094 293.078125 172.050781 293.214844 171.941406 C 293.347656 171.835938 293.546875 171.851562 293.660156 171.980469 " fill-opacity="1" fill-rule="nonzero"/><g clip-path="url(#2fc5284cda)"><path fill="#e52024" d="M 56.476562 181.386719 L 64.089844 165.492188 C 64.132812 165.398438 64.136719 165.292969 64.089844 165.199219 C 64.046875 165.101562 63.964844 165.027344 63.859375 164.992188 L 63.160156 164.742188 C 63.074219 164.714844 63.03125 164.628906 63.0625 164.550781 L 64.464844 161.160156 C 64.492188 161.097656 64.566406 161.054688 64.640625 161.066406 L 69.371094 161.6875 C 69.425781 161.691406 69.472656 161.722656 69.496094 161.769531 C 69.519531 161.8125 69.519531 161.867188 69.488281 161.910156 L 56.769531 181.523438 C 56.738281 181.570312 56.683594 181.597656 56.628906 181.597656 C 56.601562 181.597656 56.574219 181.589844 56.550781 181.582031 C 56.476562 181.542969 56.441406 181.460938 56.476562 181.386719 " fill-opacity="1" fill-rule="nonzero"/></g><g clip-path="url(#98beafe5ac)"><path fill="#f5f6f5" d="M 60.492188 156 L 60.71875 156.800781 C 61.347656 159.015625 63.597656 160.347656 65.839844 159.828125 C 66.640625 159.644531 67.359375 159.480469 67.757812 159.398438 C 68.414062 159.289062 69.132812 159.183594 69.890625 159.066406 C 70.652344 158.953125 71.457031 158.808594 72.324219 158.722656 C 73.191406 158.625 74.105469 158.519531 75.058594 158.40625 C 76.019531 158.300781 77.039062 158.234375 78.089844 158.136719 C 78.617188 158.089844 79.152344 158.046875 79.703125 158 C 80.253906 157.964844 80.816406 157.929688 81.390625 157.894531 C 82.539062 157.832031 83.722656 157.742188 84.953125 157.695312 C 89.871094 157.453125 95.457031 157.375 101.558594 157.398438 C 107.65625 157.441406 114.277344 157.640625 121.28125 157.960938 C 128.285156 158.28125 135.671875 158.71875 143.3125 159.253906 C 147.132812 159.519531 151.019531 159.8125 154.945312 160.121094 C 158.875 160.441406 162.851562 160.796875 166.863281 161.160156 C 174.878906 161.886719 183.015625 162.6875 191.160156 163.511719 C 195.226562 163.925781 199.296875 164.335938 203.355469 164.75 C 205.390625 164.949219 207.414062 165.148438 209.433594 165.347656 C 210.449219 165.441406 211.457031 165.535156 212.46875 165.628906 C 213.46875 165.722656 214.5 165.792969 215.503906 165.867188 C 219.539062 166.191406 223.570312 166.367188 227.554688 166.367188 C 231.539062 166.394531 235.480469 166.222656 239.328125 165.910156 C 243.171875 165.605469 246.921875 165.203125 250.585938 164.914062 C 254.246094 164.621094 257.839844 164.433594 261.320312 164.34375 C 262.199219 164.328125 263.070312 164.3125 263.9375 164.300781 C 264.371094 164.296875 264.800781 164.289062 265.234375 164.285156 L 265.558594 164.28125 L 265.859375 164.285156 L 266.488281 164.296875 C 266.90625 164.308594 267.320312 164.308594 267.730469 164.328125 C 268.148438 164.359375 268.558594 164.390625 268.96875 164.414062 C 269.792969 164.460938 270.601562 164.578125 271.410156 164.667969 C 274.632812 165.082031 277.722656 165.75 280.65625 166.53125 C 286.515625 168.105469 291.746094 170.101562 296.304688 172.019531 C 300.851562 173.984375 304.730469 175.902344 307.882812 177.546875 C 311.039062 179.1875 313.464844 180.574219 315.101562 181.546875 C 315.925781 182.035156 316.542969 182.410156 316.960938 182.664062 C 317.078125 182.738281 317.210938 182.773438 317.339844 182.773438 C 317.585938 182.773438 317.824219 182.652344 317.957031 182.429688 C 318.546875 181.464844 318.222656 180.203125 317.242188 179.644531 C 317 179.503906 316.734375 179.351562 316.441406 179.1875 C 314.753906 178.238281 312.269531 176.875 309.050781 175.253906 C 305.828125 173.632812 301.871094 171.75 297.226562 169.824219 C 292.589844 167.894531 287.261719 165.886719 281.242188 164.296875 C 278.230469 163.507812 275.050781 162.832031 271.691406 162.417969 C 270.851562 162.328125 270.007812 162.210938 269.144531 162.164062 C 268.714844 162.136719 268.28125 162.105469 267.847656 162.070312 C 267.414062 162.054688 266.976562 162.046875 266.535156 162.035156 L 265.875 162.023438 L 265.535156 162.015625 L 265.210938 162.019531 C 264.78125 162.023438 264.351562 162.027344 263.917969 162.03125 C 263.050781 162.042969 262.175781 162.054688 261.296875 162.066406 C 257.742188 162.148438 254.113281 162.328125 250.410156 162.613281 C 246.710938 162.890625 242.953125 163.285156 239.148438 163.574219 C 235.351562 163.871094 231.492188 164.03125 227.578125 163.988281 C 223.667969 163.945312 219.707031 163.726562 215.714844 163.363281 C 214.710938 163.273438 213.726562 163.199219 212.71875 163.089844 C 211.714844 162.984375 210.707031 162.882812 209.703125 162.777344 C 207.691406 162.554688 205.667969 162.332031 203.644531 162.113281 C 199.597656 161.652344 195.53125 161.195312 191.464844 160.738281 C 175.199219 158.894531 158.902344 157.175781 143.597656 155.875 C 140.390625 155.597656 137.230469 155.339844 134.117188 155.109375 C 133.851562 155.085938 133.582031 155.066406 133.3125 155.046875 C 133.6875 154.886719 134.09375 154.71875 134.535156 154.542969 C 138.855469 152.8125 146.503906 150.175781 158.410156 147.417969 C 170.976562 144.503906 185.289062 145.199219 195.472656 146.378906 C 202.5625 147.203125 209.542969 148.816406 216.257812 151.242188 C 216.289062 151.253906 216.320312 151.265625 216.351562 151.277344 C 224.445312 154.203125 230.976562 157.246094 235.46875 159.5 C 237.710938 160.628906 239.449219 161.566406 240.621094 162.21875 C 241.003906 162.429688 241.359375 162.644531 241.640625 162.816406 C 241.644531 162.816406 241.644531 162.820312 241.648438 162.820312 C 241.652344 162.824219 241.660156 162.828125 241.667969 162.832031 C 241.953125 162.992188 242.359375 163.042969 242.414062 163.046875 C 242.417969 163.046875 242.421875 163.046875 242.421875 163.046875 C 243.03125 163.019531 244.199219 162.917969 245.027344 162.84375 C 245.066406 162.839844 245.105469 162.835938 245.140625 162.832031 C 245.148438 162.832031 245.160156 162.832031 245.171875 162.832031 C 245.78125 162.742188 245.554688 162.511719 245.378906 162.390625 C 245.367188 162.382812 245.359375 162.375 245.347656 162.371094 C 245.332031 162.363281 245.3125 162.351562 245.296875 162.339844 C 245.28125 162.332031 245.265625 162.320312 245.25 162.3125 C 245.246094 162.308594 245.246094 162.308594 245.246094 162.308594 C 244.433594 161.808594 243.195312 161.046875 243.125 161.003906 C 242.816406 160.824219 242.363281 160.558594 241.769531 160.210938 C 240.582031 159.53125 238.828125 158.550781 236.570312 157.375 C 232.042969 155.027344 225.480469 151.851562 217.296875 148.761719 C 213.207031 147.214844 208.710938 145.703125 203.871094 144.378906 C 199.035156 143.050781 193.855469 141.898438 188.417969 141.113281 C 182.984375 140.363281 177.289062 139.992188 171.507812 140.234375 C 170.78125 140.257812 170.058594 140.332031 169.335938 140.375 L 168.242188 140.457031 L 167.695312 140.496094 L 167.160156 140.546875 C 165.730469 140.691406 164.300781 140.835938 162.867188 140.976562 C 160 141.261719 157.113281 141.589844 154.230469 141.894531 C 148.472656 142.546875 142.714844 143.222656 137.058594 143.933594 C 134.230469 144.285156 131.425781 144.640625 128.652344 145.007812 C 125.882812 145.363281 123.144531 145.730469 120.453125 146.097656 C 117.765625 146.46875 115.117188 146.835938 112.53125 147.195312 C 109.941406 147.546875 107.414062 147.9375 104.949219 148.304688 C 104.238281 148.410156 103.535156 148.519531 102.832031 148.625 C 102.320312 148.707031 101.8125 148.78125 101.3125 148.859375 L 134.046875 154.621094 C 134.046875 154.621094 134.015625 154.617188 133.945312 154.613281 C 133.925781 154.613281 133.902344 154.609375 133.878906 154.609375 C 132.367188 154.488281 120.875 153.632812 106.820312 153.3125 C 91.15625 152.953125 72.296875 153.257812 60.507812 156 C 60.503906 156 60.496094 156 60.492188 156 " fill-opacity="1" fill-rule="nonzero"/></g><path fill="#f5f6f5" d="M 213.800781 159.65625 L 213.800781 158.757812 C 213.800781 158.164062 214.125 157.621094 214.644531 157.335938 L 216.417969 156.367188 C 217.066406 156.015625 217.832031 155.960938 218.519531 156.226562 L 226.007812 159.070312 C 226.425781 159.230469 226.710938 159.640625 226.710938 160.089844 L 226.710938 161.484375 C 226.710938 161.605469 226.664062 161.722656 226.585938 161.8125 L 225.621094 162.898438 C 225.527344 163.003906 225.394531 163.0625 225.25 163.0625 L 221.160156 163.0625 C 220.984375 163.0625 220.824219 162.972656 220.734375 162.824219 C 220.644531 162.675781 220.640625 162.488281 220.722656 162.335938 L 220.984375 161.847656 L 214.652344 160.679688 C 214.160156 160.589844 213.800781 160.160156 213.800781 159.65625 " fill-opacity="1" fill-rule="nonzero"/><path fill="#f5f6f5" d="M 128.675781 161.597656 L 133.921875 159.808594 C 134.070312 159.757812 134.242188 159.804688 134.328125 159.921875 C 134.410156 160.035156 134.386719 160.183594 134.265625 160.273438 L 131.453125 162.335938 C 131.21875 162.507812 131.15625 162.792969 131.300781 163.023438 L 144.222656 183.578125 L 150.539062 187.859375 C 150.675781 187.953125 150.703125 188.117188 150.597656 188.238281 C 150.535156 188.3125 150.433594 188.351562 150.332031 188.351562 C 150.269531 188.351562 150.207031 188.335938 150.148438 188.304688 L 143.230469 184.445312 C 143.183594 184.421875 143.148438 184.386719 143.125 184.347656 L 128.511719 161.988281 C 128.46875 161.917969 128.460938 161.835938 128.492188 161.761719 C 128.523438 161.6875 128.589844 161.628906 128.675781 161.597656 " fill-opacity="1" fill-rule="nonzero"/><g clip-path="url(#987eb5fe46)"><path fill="#f5f6f5" d="M 150.167969 183.464844 C 150.183594 183.390625 150.261719 183.335938 150.351562 183.347656 L 225.796875 191.128906 C 225.851562 191.136719 225.898438 191.164062 225.921875 191.207031 C 225.949219 191.25 225.945312 191.296875 225.914062 191.339844 L 225.113281 192.433594 L 229.210938 193.683594 C 229.289062 193.710938 229.332031 193.78125 229.3125 193.847656 C 229.292969 193.910156 229.226562 193.953125 229.152344 193.953125 C 229.144531 193.953125 229.136719 193.953125 229.128906 193.949219 L 150.308594 183.617188 C 150.21875 183.609375 150.15625 183.539062 150.167969 183.464844 " fill-opacity="1" fill-rule="nonzero"/></g><path fill="#f5f6f5" d="M 267.054688 171.214844 C 275.457031 171.214844 283.300781 175.734375 287.53125 183.007812 C 287.65625 183.222656 287.59375 183.488281 287.382812 183.625 C 287.300781 183.671875 287.214844 183.699219 287.132812 183.699219 C 286.988281 183.699219 286.847656 183.628906 286.757812 183.5 C 282.3125 177.128906 274.761719 173.171875 267.054688 173.171875 C 260.109375 173.171875 252.929688 176.539062 248.320312 181.957031 C 248.160156 182.148438 247.886719 182.175781 247.691406 182.023438 C 247.496094 181.871094 247.453125 181.605469 247.59375 181.398438 C 252.023438 175.019531 259.296875 171.214844 267.054688 171.214844 " fill-opacity="1" fill-rule="nonzero"/><path fill="#f5f6f5" d="M 96.921875 166.269531 C 105.324219 166.269531 113.171875 170.789062 117.398438 178.066406 C 117.523438 178.28125 117.460938 178.546875 117.25 178.679688 C 117.171875 178.730469 117.085938 178.753906 116.996094 178.753906 C 116.855469 178.753906 116.714844 178.683594 116.625 178.554688 C 112.179688 172.183594 104.628906 168.226562 96.921875 168.226562 C 89.976562 168.226562 82.800781 171.59375 78.1875 177.015625 C 78.027344 177.203125 77.757812 177.234375 77.558594 177.082031 C 77.363281 176.929688 77.320312 176.660156 77.460938 176.457031 C 81.890625 170.078125 89.167969 166.269531 96.921875 166.269531 " fill-opacity="1" fill-rule="nonzero"/><path fill="#f5f6f5" d="M 245.027344 162.84375 C 245.066406 162.84375 245.109375 162.839844 245.140625 162.832031 C 245.105469 162.835938 245.066406 162.839844 245.027344 162.84375 " fill-opacity="1" fill-rule="nonzero"/><g fill="#f5f6f5" fill-opacity="1"><g transform="translate(26.736331, 216.327194)"><g><path d="M 18.96875 0 C 20.613281 0 22.015625 -0.578125 23.171875 -1.734375 C 24.335938 -2.898438 24.921875 -4.304688 24.921875 -5.953125 L 24.921875 -12.78125 C 24.921875 -14.414062 24.335938 -15.8125 23.171875 -16.96875 C 22.015625 -18.132812 20.613281 -18.71875 18.96875 -18.71875 L 2.609375 -18.71875 L 2.609375 0 Z M 18.96875 -2.96875 L 5.59375 -2.96875 L 5.59375 -15.75 L 18.96875 -15.75 C 19.78125 -15.75 20.476562 -15.457031 21.0625 -14.875 C 21.644531 -14.289062 21.9375 -13.59375 21.9375 -12.78125 L 21.9375 -5.953125 C 21.9375 -5.128906 21.644531 -4.425781 21.0625 -3.84375 C 20.476562 -3.257812 19.78125 -2.96875 18.96875 -2.96875 Z M 18.96875 -2.96875 "/></g></g></g><g fill="#f5f6f5" fill-opacity="1"><g transform="translate(62.54723, 216.327194)"><g><path d="M 23.4375 0 L 2.609375 0 L 2.609375 -18.71875 L 23.4375 -18.71875 L 23.4375 -15.75 L 5.59375 -15.75 L 5.59375 -10.84375 L 21.3125 -10.84375 L 21.3125 -7.875 L 5.59375 -7.875 L 5.59375 -2.96875 L 23.4375 -2.96875 Z M 23.4375 0 "/></g></g></g><g fill="#f5f6f5" fill-opacity="1"><g transform="translate(96.870022, 216.327194)"><g><path d="M 27.296875 0 L 23.6875 0 L 20.953125 -4.0625 L 6.734375 -4.0625 L 3.984375 0 L 0.390625 0 L 13.046875 -18.71875 L 14.640625 -18.71875 Z M 18.9375 -7.03125 L 13.84375 -14.578125 L 8.734375 -7.03125 Z M 18.9375 -7.03125 "/></g></g></g><g fill="#f5f6f5" fill-opacity="1"><g transform="translate(133.490248, 216.327194)"><g><path d="M 19.75 0 L 19.75 -2.96875 L 5.59375 -2.96875 L 5.59375 -18.71875 L 2.609375 -18.71875 L 2.609375 0 Z M 19.75 0 "/></g></g></g><g fill="#f5f6f5" fill-opacity="1"><g transform="translate(163.087644, 216.327194)"><g><path d="M 23.4375 0 L 2.609375 0 L 2.609375 -18.71875 L 23.4375 -18.71875 L 23.4375 -15.75 L 5.59375 -15.75 L 5.59375 -10.84375 L 21.3125 -10.84375 L 21.3125 -7.875 L 5.59375 -7.875 L 5.59375 -2.96875 L 23.4375 -2.96875 Z M 23.4375 0 "/></g></g></g><g fill="#f5f6f5" fill-opacity="1"><g transform="translate(197.410431, 216.327194)"><g><path d="M 24.921875 0 L 21.9375 0 L 21.9375 -5.28125 C 21.9375 -5.6875 21.789062 -6.035156 21.5 -6.328125 C 21.207031 -6.617188 20.859375 -6.765625 20.453125 -6.765625 L 5.59375 -6.765625 L 5.59375 0 L 2.609375 0 L 2.609375 -18.71875 L 20.453125 -18.71875 C 21.679688 -18.71875 22.734375 -18.28125 23.609375 -17.40625 C 24.484375 -16.539062 24.921875 -15.492188 24.921875 -14.265625 L 24.921875 -11.21875 C 24.921875 -10.070312 24.535156 -9.082031 23.765625 -8.25 C 24.535156 -7.40625 24.921875 -6.414062 24.921875 -5.28125 Z M 20.453125 -9.734375 C 20.859375 -9.734375 21.207031 -9.878906 21.5 -10.171875 C 21.789062 -10.460938 21.9375 -10.8125 21.9375 -11.21875 L 21.9375 -14.265625 C 21.9375 -14.671875 21.789062 -15.019531 21.5 -15.3125 C 21.207031 -15.601562 20.859375 -15.75 20.453125 -15.75 L 5.59375 -15.75 L 5.59375 -9.734375 Z M 20.453125 -9.734375 "/></g></g></g><g fill="#f5f6f5" fill-opacity="1"><g transform="translate(233.221325, 216.327194)"><g><path d="M 19.796875 0 L 6.421875 0 C 5.179688 0 4.125 -0.429688 3.25 -1.296875 C 2.382812 -2.171875 1.953125 -3.226562 1.953125 -4.46875 L 4.9375 -4.46875 C 4.9375 -4.050781 5.082031 -3.695312 5.375 -3.40625 C 5.664062 -3.113281 6.015625 -2.96875 6.421875 -2.96875 L 19.796875 -2.96875 C 20.210938 -2.96875 20.566406 -3.113281 20.859375 -3.40625 C 21.148438 -3.695312 21.296875 -4.050781 21.296875 -4.46875 L 21.296875 -6.390625 C 21.296875 -6.804688 21.148438 -7.15625 20.859375 -7.4375 C 20.566406 -7.726562 20.210938 -7.875 19.796875 -7.875 L 6.421875 -7.875 C 5.179688 -7.875 4.125 -8.3125 3.25 -9.1875 C 2.382812 -10.0625 1.953125 -11.109375 1.953125 -12.328125 L 1.953125 -14.265625 C 1.953125 -15.492188 2.382812 -16.539062 3.25 -17.40625 C 4.125 -18.28125 5.179688 -18.71875 6.421875 -18.71875 L 19.796875 -18.71875 C 21.023438 -18.71875 22.078125 -18.28125 22.953125 -17.40625 C 23.828125 -16.539062 24.265625 -15.492188 24.265625 -14.265625 L 21.296875 -14.265625 C 21.296875 -14.671875 21.148438 -15.019531 20.859375 -15.3125 C 20.566406 -15.601562 20.210938 -15.75 19.796875 -15.75 L 6.421875 -15.75 C 6.015625 -15.75 5.664062 -15.601562 5.375 -15.3125 C 5.082031 -15.019531 4.9375 -14.671875 4.9375 -14.265625 L 4.9375 -12.328125 C 4.9375 -11.921875 5.082031 -11.570312 5.375 -11.28125 C 5.664062 -10.988281 6.015625 -10.84375 6.421875 -10.84375 L 19.796875 -10.84375 C 21.023438 -10.84375 22.078125 -10.40625 22.953125 -9.53125 C 23.828125 -8.664062 24.265625 -7.617188 24.265625 -6.390625 L 24.265625 -4.46875 C 24.265625 -3.226562 23.828125 -2.171875 22.953125 -1.296875 C 22.078125 -0.429688 21.023438 0 19.796875 0 Z M 19.796875 0 "/></g></g></g><g fill="#f5f6f5" fill-opacity="1"><g transform="translate(268.37954, 216.327194)"><g><path d="M 24.3125 0 L 21.34375 0 L 21.34375 -7.890625 L 5.59375 -7.890625 L 5.59375 0 L 2.609375 0 L 2.609375 -18.71875 L 5.59375 -18.71875 L 5.59375 -10.84375 L 21.34375 -10.84375 L 21.34375 -18.71875 L 24.3125 -18.71875 Z M 24.3125 0 "/></g></g></g><g fill="#f5f6f5" fill-opacity="1"><g transform="translate(304.242648, 216.327194)"><g><path d="M 5.59375 0 L 5.59375 -18.71875 L 2.609375 -18.71875 L 2.609375 0 Z M 5.59375 0 "/></g></g></g><g fill="#f5f6f5" fill-opacity="1"><g transform="translate(321.373888, 216.327194)"><g><path d="M 5.59375 0 L 2.609375 0 L 2.609375 -18.71875 L 20.453125 -18.71875 C 21.679688 -18.71875 22.734375 -18.28125 23.609375 -17.40625 C 24.484375 -16.539062 24.921875 -15.492188 24.921875 -14.265625 L 24.921875 -11.21875 C 24.921875 -9.988281 24.484375 -8.9375 23.609375 -8.0625 C 22.734375 -7.195312 21.679688 -6.765625 20.453125 -6.765625 L 5.59375 -6.765625 Z M 20.453125 -9.734375 C 20.859375 -9.734375 21.207031 -9.878906 21.5 -10.171875 C 21.789062 -10.460938 21.9375 -10.8125 21.9375 -11.21875 L 21.9375 -14.265625 C 21.9375 -14.671875 21.789062 -15.019531 21.5 -15.3125 C 21.207031 -15.601562 20.859375 -15.75 20.453125 -15.75 L 5.59375 -15.75 L 5.59375 -9.734375 Z M 20.453125 -9.734375 "/></g></g></g><g fill="#e52024" fill-opacity="1"><g transform="translate(95.012413, 232.502439)"><g><path d="M 6.875 0 L 2.234375 0 C 1.804688 0 1.441406 -0.148438 1.140625 -0.453125 C 0.835938 -0.753906 0.6875 -1.117188 0.6875 -1.546875 L 1.71875 -1.546875 C 1.71875 -1.410156 1.765625 -1.289062 1.859375 -1.1875 C 1.960938 -1.082031 2.085938 -1.03125 2.234375 -1.03125 L 6.875 -1.03125 C 7.019531 -1.03125 7.140625 -1.082031 7.234375 -1.1875 C 7.335938 -1.289062 7.390625 -1.410156 7.390625 -1.546875 L 7.390625 -2.21875 C 7.390625 -2.363281 7.335938 -2.484375 7.234375 -2.578125 C 7.140625 -2.679688 7.019531 -2.734375 6.875 -2.734375 L 2.234375 -2.734375 C 1.804688 -2.734375 1.441406 -2.882812 1.140625 -3.1875 C 0.835938 -3.488281 0.6875 -3.851562 0.6875 -4.28125 L 0.6875 -4.953125 C 0.6875 -5.378906 0.835938 -5.742188 1.140625 -6.046875 C 1.441406 -6.347656 1.804688 -6.5 2.234375 -6.5 L 6.875 -6.5 C 7.300781 -6.5 7.664062 -6.347656 7.96875 -6.046875 C 8.269531 -5.742188 8.421875 -5.378906 8.421875 -4.953125 L 7.390625 -4.953125 C 7.390625 -5.097656 7.335938 -5.21875 7.234375 -5.3125 C 7.140625 -5.414062 7.019531 -5.46875 6.875 -5.46875 L 2.234375 -5.46875 C 2.085938 -5.46875 1.960938 -5.414062 1.859375 -5.3125 C 1.765625 -5.21875 1.71875 -5.097656 1.71875 -4.953125 L 1.71875 -4.28125 C 1.71875 -4.132812 1.765625 -4.007812 1.859375 -3.90625 C 1.960938 -3.8125 2.085938 -3.765625 2.234375 -3.765625 L 6.875 -3.765625 C 7.300781 -3.765625 7.664062 -3.613281 7.96875 -3.3125 C 8.269531 -3.007812 8.421875 -2.644531 8.421875 -2.21875 L 8.421875 -1.546875 C 8.421875 -1.117188 8.269531 -0.753906 7.96875 -0.453125 C 7.664062 -0.148438 7.300781 0 6.875 0 Z M 6.875 0 "/></g></g></g><g fill="#e52024" fill-opacity="1"><g transform="translate(105.984529, 232.502439)"><g><path d="M 8.140625 0 L 0.90625 0 L 0.90625 -6.5 L 8.140625 -6.5 L 8.140625 -5.46875 L 1.9375 -5.46875 L 1.9375 -3.765625 L 7.40625 -3.765625 L 7.40625 -2.734375 L 1.9375 -2.734375 L 1.9375 -1.03125 L 8.140625 -1.03125 Z M 8.140625 0 "/></g></g></g><g fill="#e52024" fill-opacity="1"><g transform="translate(116.666585, 232.502439)"><g><path d="M 6.859375 0 L 6.859375 -1.03125 L 1.9375 -1.03125 L 1.9375 -6.5 L 0.90625 -6.5 L 0.90625 0 Z M 6.859375 0 "/></g></g></g><g fill="#e52024" fill-opacity="1"><g transform="translate(125.707991, 232.502439)"><g><path d="M 6.859375 0 L 6.859375 -1.03125 L 1.9375 -1.03125 L 1.9375 -6.5 L 0.90625 -6.5 L 0.90625 0 Z M 6.859375 0 "/></g></g></g><g fill="#e52024" fill-opacity="1"><g transform="translate(134.749397, 232.502439)"><g/></g></g><g fill="#e52024" fill-opacity="1"><g transform="translate(138.918709, 232.502439)"><g><path d="M 0.265625 -2.859375 L 0.265625 -3.640625 L 2.984375 -3.640625 L 2.984375 -2.859375 Z M 0.265625 -2.859375 "/></g></g></g><g fill="#e52024" fill-opacity="1"><g transform="translate(144.04431, 232.502439)"><g/></g></g><g fill="#e52024" fill-opacity="1"><g transform="translate(148.213624, 232.502439)"><g><path d="M 4.109375 0 L 3.078125 0 L 3.078125 -5.46875 L 0.140625 -5.46875 L 0.140625 -6.5 L 7.0625 -6.5 L 7.0625 -5.46875 L 4.109375 -5.46875 Z M 4.109375 0 "/></g></g></g><g fill="#e52024" fill-opacity="1"><g transform="translate(157.273156, 232.502439)"><g><path d="M 8.65625 0 L 7.625 0 L 7.625 -1.828125 C 7.625 -1.972656 7.570312 -2.09375 7.46875 -2.1875 C 7.363281 -2.289062 7.238281 -2.34375 7.09375 -2.34375 L 1.9375 -2.34375 L 1.9375 0 L 0.90625 0 L 0.90625 -6.5 L 7.09375 -6.5 C 7.519531 -6.5 7.882812 -6.347656 8.1875 -6.046875 C 8.5 -5.742188 8.65625 -5.378906 8.65625 -4.953125 L 8.65625 -3.890625 C 8.65625 -3.492188 8.519531 -3.148438 8.25 -2.859375 C 8.519531 -2.566406 8.65625 -2.222656 8.65625 -1.828125 Z M 7.09375 -3.375 C 7.238281 -3.375 7.363281 -3.425781 7.46875 -3.53125 C 7.570312 -3.632812 7.625 -3.753906 7.625 -3.890625 L 7.625 -4.953125 C 7.625 -5.097656 7.570312 -5.21875 7.46875 -5.3125 C 7.363281 -5.414062 7.238281 -5.46875 7.09375 -5.46875 L 1.9375 -5.46875 L 1.9375 -3.375 Z M 7.09375 -3.375 "/></g></g></g><g fill="#e52024" fill-opacity="1"><g transform="translate(168.471879, 232.502439)"><g><path d="M 9.46875 0 L 8.21875 0 L 7.28125 -1.40625 L 2.34375 -1.40625 L 1.375 0 L 0.140625 0 L 4.53125 -6.5 L 5.078125 -6.5 Z M 6.578125 -2.4375 L 4.796875 -5.0625 L 3.03125 -2.4375 Z M 6.578125 -2.4375 "/></g></g></g><g fill="#e52024" fill-opacity="1"><g transform="translate(179.951596, 232.502439)"><g><path d="M 6.578125 0 C 7.148438 0 7.640625 -0.195312 8.046875 -0.59375 C 8.453125 -1 8.65625 -1.488281 8.65625 -2.0625 L 8.65625 -4.4375 C 8.65625 -5 8.453125 -5.484375 8.046875 -5.890625 C 7.640625 -6.296875 7.148438 -6.5 6.578125 -6.5 L 0.90625 -6.5 L 0.90625 0 Z M 6.578125 -1.03125 L 1.9375 -1.03125 L 1.9375 -5.46875 L 6.578125 -5.46875 C 6.867188 -5.46875 7.113281 -5.363281 7.3125 -5.15625 C 7.519531 -4.957031 7.625 -4.71875 7.625 -4.4375 L 7.625 -2.0625 C 7.625 -1.78125 7.519531 -1.535156 7.3125 -1.328125 C 7.113281 -1.128906 6.867188 -1.03125 6.578125 -1.03125 Z M 6.578125 -1.03125 "/></g></g></g><g fill="#e52024" fill-opacity="1"><g transform="translate(191.150318, 232.502439)"><g><path d="M 8.140625 0 L 0.90625 0 L 0.90625 -6.5 L 8.140625 -6.5 L 8.140625 -5.46875 L 1.9375 -5.46875 L 1.9375 -3.765625 L 7.40625 -3.765625 L 7.40625 -2.734375 L 1.9375 -2.734375 L 1.9375 -1.03125 L 8.140625 -1.03125 Z M 8.140625 0 "/></g></g></g><g fill="#e52024" fill-opacity="1"><g transform="translate(201.832371, 232.502439)"><g/></g></g><g fill="#e52024" fill-opacity="1"><g transform="translate(206.00168, 232.502439)"><g><path d="M 0.265625 -2.859375 L 0.265625 -3.640625 L 2.984375 -3.640625 L 2.984375 -2.859375 Z M 0.265625 -2.859375 "/></g></g></g><g fill="#e52024" fill-opacity="1"><g transform="translate(211.127279, 232.502439)"><g><path d="M 6.875 0 L 2.234375 0 C 1.804688 0 1.441406 -0.148438 1.140625 -0.453125 C 0.835938 -0.753906 0.6875 -1.117188 0.6875 -1.546875 L 1.71875 -1.546875 C 1.71875 -1.410156 1.765625 -1.289062 1.859375 -1.1875 C 1.960938 -1.082031 2.085938 -1.03125 2.234375 -1.03125 L 6.875 -1.03125 C 7.019531 -1.03125 7.140625 -1.082031 7.234375 -1.1875 C 7.335938 -1.289062 7.390625 -1.410156 7.390625 -1.546875 L 7.390625 -2.21875 C 7.390625 -2.363281 7.335938 -2.484375 7.234375 -2.578125 C 7.140625 -2.679688 7.019531 -2.734375 6.875 -2.734375 L 2.234375 -2.734375 C 1.804688 -2.734375 1.441406 -2.882812 1.140625 -3.1875 C 0.835938 -3.488281 0.6875 -3.851562 0.6875 -4.28125 L 0.6875 -4.953125 C 0.6875 -5.378906 0.835938 -5.742188 1.140625 -6.046875 C 1.441406 -6.347656 1.804688 -6.5 2.234375 -6.5 L 6.875 -6.5 C 7.300781 -6.5 7.664062 -6.347656 7.96875 -6.046875 C 8.269531 -5.742188 8.421875 -5.378906 8.421875 -4.953125 L 7.390625 -4.953125 C 7.390625 -5.097656 7.335938 -5.21875 7.234375 -5.3125 C 7.140625 -5.414062 7.019531 -5.46875 6.875 -5.46875 L 2.234375 -5.46875 C 2.085938 -5.46875 1.960938 -5.414062 1.859375 -5.3125 C 1.765625 -5.21875 1.71875 -5.097656 1.71875 -4.953125 L 1.71875 -4.28125 C 1.71875 -4.132812 1.765625 -4.007812 1.859375 -3.90625 C 1.960938 -3.8125 2.085938 -3.765625 2.234375 -3.765625 L 6.875 -3.765625 C 7.300781 -3.765625 7.664062 -3.613281 7.96875 -3.3125 C 8.269531 -3.007812 8.421875 -2.644531 8.421875 -2.21875 L 8.421875 -1.546875 C 8.421875 -1.117188 8.269531 -0.753906 7.96875 -0.453125 C 7.664062 -0.148438 7.300781 0 6.875 0 Z M 6.875 0 "/></g></g></g><g fill="#e52024" fill-opacity="1"><g transform="translate(222.099392, 232.502439)"><g><path d="M 8.140625 0 L 0.90625 0 L 0.90625 -6.5 L 8.140625 -6.5 L 8.140625 -5.46875 L 1.9375 -5.46875 L 1.9375 -3.765625 L 7.40625 -3.765625 L 7.40625 -2.734375 L 1.9375 -2.734375 L 1.9375 -1.03125 L 8.140625 -1.03125 Z M 8.140625 0 "/></g></g></g><g fill="#e52024" fill-opacity="1"><g transform="translate(232.781445, 232.502439)"><g><path d="M 8.65625 0 L 7.625 0 L 7.625 -1.828125 C 7.625 -1.972656 7.570312 -2.09375 7.46875 -2.1875 C 7.363281 -2.289062 7.238281 -2.34375 7.09375 -2.34375 L 1.9375 -2.34375 L 1.9375 0 L 0.90625 0 L 0.90625 -6.5 L 7.09375 -6.5 C 7.519531 -6.5 7.882812 -6.347656 8.1875 -6.046875 C 8.5 -5.742188 8.65625 -5.378906 8.65625 -4.953125 L 8.65625 -3.890625 C 8.65625 -3.492188 8.519531 -3.148438 8.25 -2.859375 C 8.519531 -2.566406 8.65625 -2.222656 8.65625 -1.828125 Z M 7.09375 -3.375 C 7.238281 -3.375 7.363281 -3.425781 7.46875 -3.53125 C 7.570312 -3.632812 7.625 -3.753906 7.625 -3.890625 L 7.625 -4.953125 C 7.625 -5.097656 7.570312 -5.21875 7.46875 -5.3125 C 7.363281 -5.414062 7.238281 -5.46875 7.09375 -5.46875 L 1.9375 -5.46875 L 1.9375 -3.375 Z M 7.09375 -3.375 "/></g></g></g><g fill="#e52024" fill-opacity="1"><g transform="translate(243.980167, 232.502439)"><g><path d="M 5.078125 0 L 4.53125 0 L 0.140625 -6.5 L 1.375 -6.5 L 4.796875 -1.4375 L 8.21875 -6.5 L 9.484375 -6.5 Z M 5.078125 0 "/></g></g></g><g fill="#e52024" fill-opacity="1"><g transform="translate(255.468949, 232.502439)"><g><path d="M 1.9375 0 L 1.9375 -6.5 L 0.90625 -6.5 L 0.90625 0 Z M 1.9375 0 "/></g></g></g><g fill="#e52024" fill-opacity="1"><g transform="translate(260.182119, 232.502439)"><g><path d="M 6.359375 0 C 6.929688 0 7.414062 -0.195312 7.8125 -0.59375 C 8.21875 -1 8.421875 -1.488281 8.421875 -2.0625 L 7.390625 -2.0625 C 7.390625 -1.78125 7.285156 -1.535156 7.078125 -1.328125 C 6.878906 -1.128906 6.640625 -1.03125 6.359375 -1.03125 L 2.75 -1.03125 C 2.457031 -1.03125 2.210938 -1.128906 2.015625 -1.328125 C 1.816406 -1.535156 1.71875 -1.78125 1.71875 -2.0625 L 1.71875 -4.4375 C 1.71875 -4.71875 1.816406 -4.957031 2.015625 -5.15625 C 2.210938 -5.363281 2.457031 -5.46875 2.75 -5.46875 L 6.359375 -5.46875 C 6.640625 -5.46875 6.878906 -5.363281 7.078125 -5.15625 C 7.285156 -4.957031 7.390625 -4.71875 7.390625 -4.4375 L 8.421875 -4.4375 C 8.421875 -5 8.21875 -5.484375 7.8125 -5.890625 C 7.414062 -6.296875 6.929688 -6.5 6.359375 -6.5 L 2.75 -6.5 C 2.175781 -6.5 1.6875 -6.296875 1.28125 -5.890625 C 0.882812 -5.484375 0.6875 -5 0.6875 -4.4375 L 0.6875 -2.0625 C 0.6875 -1.488281 0.882812 -1 1.28125 -0.59375 C 1.6875 -0.195312 2.175781 0 2.75 0 Z M 6.359375 0 "/></g></g></g><g fill="#e52024" fill-opacity="1"><g transform="translate(271.154232, 232.502439)"><g><path d="M 8.140625 0 L 0.90625 0 L 0.90625 -6.5 L 8.140625 -6.5 L 8.140625 -5.46875 L 1.9375 -5.46875 L 1.9375 -3.765625 L 7.40625 -3.765625 L 7.40625 -2.734375 L 1.9375 -2.734375 L 1.9375 -1.03125 L 8.140625 -1.03125 Z M 8.140625 0 "/></g></g></g><g clip-path="url(#2c692f5c73)"><path fill="#f5f6f5" d="M 133.917969 221.410156 L 133.917969 222.464844 L 113.476562 222.464844 L 120.027344 215.914062 C 120.15625 216.023438 120.296875 216.113281 120.449219 216.1875 C 120.601562 216.257812 120.757812 216.3125 120.921875 216.34375 C 121.085938 216.375 121.253906 216.386719 121.421875 216.375 C 121.589844 216.363281 121.753906 216.332031 121.914062 216.28125 C 122.070312 216.230469 122.222656 216.15625 122.363281 216.066406 C 122.503906 215.976562 122.632812 215.867188 122.746094 215.742188 C 122.859375 215.621094 122.957031 215.484375 123.035156 215.335938 C 123.113281 215.1875 123.171875 215.03125 123.210938 214.867188 C 123.25 214.703125 123.269531 214.539062 123.265625 214.371094 C 123.261719 214.203125 123.234375 214.039062 123.191406 213.875 C 123.144531 213.714844 123.078125 213.5625 122.996094 213.417969 C 122.910156 213.273438 122.808594 213.140625 122.6875 213.023438 C 122.570312 212.902344 122.4375 212.800781 122.292969 212.714844 C 122.148438 212.632812 121.996094 212.566406 121.832031 212.519531 C 121.671875 212.472656 121.507812 212.449219 121.339844 212.445312 C 121.171875 212.441406 121.003906 212.460938 120.84375 212.5 C 120.679688 212.539062 120.523438 212.597656 120.375 212.675781 C 120.226562 212.753906 120.089844 212.851562 119.964844 212.964844 C 119.84375 213.078125 119.734375 213.207031 119.644531 213.347656 C 119.554688 213.488281 119.480469 213.636719 119.429688 213.796875 C 119.375 213.957031 119.34375 214.121094 119.335938 214.289062 C 119.324219 214.457031 119.335938 214.621094 119.367188 214.789062 C 119.398438 214.953125 119.449219 215.109375 119.523438 215.261719 C 119.597656 215.414062 119.6875 215.554688 119.792969 215.683594 L 106.761719 228.714844 L 71.769531 228.714844 L 71.769531 229.046875 L 106.898438 229.046875 L 113.148438 222.796875 L 118.472656 222.796875 L 120.921875 225.238281 L 126.242188 225.238281 L 128.6875 222.796875 L 133.921875 222.796875 L 133.921875 223.84375 L 136.363281 223.84375 L 136.363281 221.40625 Z M 136.027344 223.519531 L 134.246094 223.519531 L 134.246094 221.738281 L 136.027344 221.738281 Z M 136.027344 223.519531 " fill-opacity="1" fill-rule="nonzero"/></g><g clip-path="url(#c8230fcb45)"><path fill="#f5f6f5" d="M 348.195312 221.410156 L 348.195312 222.464844 L 327.753906 222.464844 L 334.304688 215.914062 C 334.433594 216.023438 334.574219 216.113281 334.722656 216.1875 C 334.875 216.257812 335.035156 216.3125 335.199219 216.34375 C 335.363281 216.375 335.53125 216.386719 335.699219 216.375 C 335.867188 216.363281 336.027344 216.332031 336.1875 216.28125 C 336.347656 216.230469 336.5 216.15625 336.640625 216.066406 C 336.78125 215.976562 336.910156 215.867188 337.023438 215.742188 C 337.136719 215.621094 337.230469 215.484375 337.3125 215.335938 C 337.390625 215.1875 337.449219 215.03125 337.488281 214.867188 C 337.527344 214.703125 337.542969 214.539062 337.539062 214.371094 C 337.535156 214.203125 337.511719 214.039062 337.464844 213.875 C 337.421875 213.714844 337.355469 213.5625 337.269531 213.417969 C 337.1875 213.273438 337.082031 213.140625 336.964844 213.023438 C 336.847656 212.902344 336.714844 212.800781 336.570312 212.714844 C 336.425781 212.632812 336.269531 212.566406 336.109375 212.519531 C 335.949219 212.472656 335.785156 212.449219 335.617188 212.445312 C 335.449219 212.441406 335.28125 212.460938 335.117188 212.5 C 334.953125 212.539062 334.800781 212.597656 334.652344 212.675781 C 334.503906 212.753906 334.367188 212.851562 334.242188 212.964844 C 334.117188 213.078125 334.011719 213.207031 333.921875 213.347656 C 333.828125 213.488281 333.757812 213.636719 333.707031 213.796875 C 333.652344 213.957031 333.621094 214.121094 333.609375 214.289062 C 333.601562 214.457031 333.609375 214.621094 333.644531 214.789062 C 333.675781 214.953125 333.726562 215.109375 333.800781 215.261719 C 333.871094 215.414062 333.960938 215.554688 334.070312 215.683594 L 321.039062 228.714844 L 286.046875 228.714844 L 286.046875 229.046875 L 321.175781 229.046875 L 327.425781 222.796875 L 332.75 222.796875 L 335.199219 225.238281 L 340.519531 225.238281 L 342.960938 222.796875 L 348.199219 222.796875 L 348.199219 223.84375 L 350.636719 223.84375 L 350.636719 221.40625 Z M 350.304688 223.519531 L 348.523438 223.519531 L 348.523438 221.738281 L 350.304688 221.738281 Z M 350.304688 223.519531 " fill-opacity="1" fill-rule="nonzero"/></g></svg>